<svg width="314" height="314" viewBox="0 0 314 314" fill="none" xmlns="http://www.w3.org/2000/svg">
<g clip-path="url(#clip0_2021_2352)">
<path d="M127.139 0.0334579C160.607 -0.725571 193.077 11.4549 217.8 34.0269C242.521 56.5997 257.6 87.8314 259.88 121.23C261.814 149.569 254.39 177.602 239.01 201.159C235.669 206.277 236.043 213.109 240.365 217.43L310.449 287.514C315.184 292.249 315.184 299.926 310.449 304.661L304.661 310.449C299.926 315.184 292.249 315.184 287.514 310.449L217.43 240.365C213.108 236.043 206.277 235.669 201.159 239.01C177.602 254.39 149.57 261.814 121.23 259.88C87.8314 257.6 56.5997 242.521 34.0268 217.8C11.4551 193.078 -0.725342 160.606 0.0334365 127.139C0.793928 93.6692 14.4274 61.7727 38.0999 38.0999C61.7727 14.4271 93.6689 0.793955 127.139 0.0334579ZM149.304 34.7136C130.402 30.9539 110.808 32.881 93.0032 40.2548C75.1965 47.6306 59.9732 60.1289 49.2653 76.1545C38.5593 92.1784 32.8436 111.017 32.8428 130.288L32.9612 135.119C34.1817 159.194 44.2884 182.036 61.4134 199.163C79.6812 217.43 104.455 227.703 130.288 227.734C149.561 227.733 168.409 222.03 184.434 211.323C200.458 200.616 212.946 185.39 220.322 167.585C227.696 149.781 229.633 130.186 225.875 111.285C222.115 92.3832 212.825 75.0177 199.199 61.3897C185.571 47.7617 168.206 38.4741 149.304 34.7136Z" fill="white"/>
</g>
<defs>
<clipPath id="clip0_2021_2352">
<rect width="314" height="314" fill="white"/>
</clipPath>
</defs>
</svg>
